<svg width="672" height="246" viewBox="0 0 672 246" fill="none" xmlns="http://www.w3.org/2000/svg">
    <path fill-rule="evenodd" clip-rule="evenodd" d="M0 0H672V246H475.199V212.624C479.952 216.782 485.536 219.812 491.952 221.713C498.368 223.733 505.854 224.743 514.408 224.743C524.27 224.743 533.003 222.782 540.607 218.861C548.211 214.94 554.627 209.178 559.855 201.574L561.459 221H622.055V198.544L593.004 193.554V28.1631H528.844V50.7974L557.895 55.7876V171.632C554.211 180.068 548.746 186.484 541.498 190.88C534.25 195.158 524.745 197.296 512.982 197.296C500.863 197.296 491.536 193.197 485.001 184.999C478.467 176.801 475.199 161.474 475.199 139.018V28.1631H440.268H411.217V50.7974L440.268 55.7876V246H0V0ZM60.1186 221V198.544L89.1689 193.554V55.7876L60.1186 50.7974V28.1631H120.714L123.031 53.2925C129.21 44.1437 137.17 37.0742 146.913 32.084C156.656 27.0938 167.943 24.5986 180.775 24.5986C193.607 24.5986 204.598 27.569 213.747 33.5098C223.014 39.4505 229.965 48.3617 234.599 60.2432C240.658 49.3122 248.678 40.6387 258.659 34.2227C268.639 27.8066 280.283 24.5986 293.59 24.5986C313.314 24.5986 328.878 31.3711 340.285 44.916C351.691 58.3421 357.394 78.6001 357.394 105.69V193.554L386.444 198.544V221H293.056V198.544L322.106 193.554V105.333C322.106 86.3231 318.839 72.897 312.304 65.0552C305.769 57.0946 296.085 53.1143 283.253 53.1143C271.015 53.1143 261.154 57.451 253.668 66.1245C246.302 74.6792 242.025 85.4914 240.836 98.561V193.554L269.887 198.544V221H176.676V198.544L205.727 193.554V105.333C205.727 87.2736 202.34 74.0851 195.568 65.7681C188.914 57.3322 179.231 53.1143 166.518 53.1143C155.824 53.1143 147.032 55.3123 140.141 59.7085C133.249 64.1047 127.962 70.283 124.279 78.2437V193.554L153.329 198.544V221H60.1186Z" fill="black"/>
</svg>